<?xml version="1.0" encoding="UTF-8" standalone="no"?>
<!DOCTYPE svg PUBLIC "-//W3C//DTD SVG 1.1//EN" "http://www.w3.org/Graphics/SVG/1.1/DTD/svg11.dtd">
<svg xmlns="http://www.w3.org/2000/svg" version="1.1" viewBox="0.00 0.00 2000.00 702.00">
<path stroke="#ef858a" stroke-width="2.00" fill="none" stroke-linecap="butt" vector-effect="non-scaling-stroke" d="
  M 550.22 425.96
  Q 542.64 423.37 539.02 419.73
  Q 449.22 329.41 358.69 239.28
  C 356.27 236.87 353.88 234.32 350.98 237.21
  Q 256.51 331.43 161.79 425.97"
/>
<path fill="#ffffff" d="
  M 263.11 30.75
  Q 263.88 30.41 264.62 30.20
  Q 279.84 25.86 293.20 23.86
  Q 340.22 16.81 386.72 20.61
  C 441.95 25.13 494.39 43.58 540.71 74.44
  C 542.79 75.82 543.96 77.60 544.92 79.85
  Q 560.80 117.07 569.85 155.69
  Q 570.58 158.78 569.68 162.65
  Q 568.90 166.03 567.30 167.48
  C 563.76 170.70 559.63 169.45 556.63 166.25
  Q 536.27 144.57 514.13 128.61
  Q 453.77 85.10 379.36 77.41
  C 365.15 75.94 351.27 75.86 336.64 70.29
  C 309.94 60.13 282.89 51.93 255.06 45.83
  A 2.29 2.28 77.5 0 1 253.73 44.98
  Q 248.73 38.29 256.13 34.22
  Q 259.36 32.44 263.11 30.75
  Z"
/>
<path fill="#ffffff" d="
  M 869.80 141.57
  C 869.79 143.44 871.23 145.03 873.12 145.13
  C 889.41 146.01 922.05 143.78 928.39 125.87
  Q 929.35 123.15 929.62 118.34
  Q 931.37 87.79 932.68 56.70
  Q 932.88 51.80 934.46 48.14
  C 940.39 34.37 959.87 30.82 971.57 38.73
  Q 973.42 39.98 974.13 42.22
  Q 984.23 74.26 985.04 107.99
  Q 985.44 124.96 984.38 145.20
  Q 982.06 189.58 974.90 233.04
  C 974.37 236.27 972.53 243.99 969.56 245.75
  Q 956.43 253.57 939.25 259.18
  C 934.10 260.87 930.79 258.43 930.60 253.43
  Q 928.76 204.32 927.11 160.71
  C 926.97 156.96 923.85 155.59 920.51 156.27
  Q 902.79 159.85 882.73 157.20
  C 879.71 156.80 874.65 155.48 872.13 156.65
  C 869.20 158.01 868.22 160.67 868.23 163.71
  Q 868.57 221.85 860.35 281.86
  Q 858.51 295.28 853.08 308.98
  Q 849.59 317.75 840.12 318.63
  Q 827.26 319.84 813.82 321.14
  C 810.49 321.47 808.28 319.26 808.50 315.81
  Q 809.95 292.63 811.07 270.27
  Q 811.52 261.07 811.48 250.49
  Q 811.10 146.18 809.89 41.88
  C 809.77 31.51 813.51 23.67 825.33 23.06
  Q 832.45 22.69 841.31 22.60
  C 851.89 22.50 858.21 27.05 860.25 37.57
  Q 870.23 89.16 869.80 141.57
  Z"
/>
<path fill="#ffffff" d="
  M 1476.20 155.97
  C 1471.43 154.98 1468.44 158.37 1468.37 162.90
  C 1467.87 195.95 1466.60 228.69 1463.55 262.08
  C 1462.06 278.38 1459.07 294.29 1453.55 308.80
  C 1450.92 315.72 1445.00 318.44 1437.68 319.01
  Q 1425.17 320.00 1413.41 321.22
  A 4.45 4.45 0.0 0 1 1408.51 316.55
  Q 1409.71 294.84 1410.74 272.72
  Q 1411.68 252.47 1411.53 238.93
  Q 1410.62 155.05 1409.85 40.59
  C 1409.77 27.89 1418.23 22.23 1430.05 22.63
  Q 1435.48 22.81 1440.98 22.78
  C 1452.21 22.72 1459.59 27.26 1461.39 38.81
  Q 1469.16 88.80 1470.38 142.53
  C 1470.42 144.05 1471.75 144.94 1473.15 145.02
  C 1489.15 146.04 1523.01 143.93 1528.95 125.63
  Q 1529.97 122.46 1530.17 116.26
  Q 1531.20 84.35 1532.55 54.09
  C 1532.96 45.04 1540.09 38.93 1548.47 36.44
  C 1556.07 34.18 1570.79 33.62 1574.27 42.90
  Q 1580.06 58.35 1582.67 74.60
  Q 1586.85 100.61 1585.90 128.09
  Q 1584.03 182.65 1574.15 237.70
  C 1573.28 242.54 1569.87 246.18 1565.30 248.37
  Q 1552.26 254.62 1539.70 259.73
  C 1536.76 260.92 1533.85 259.40 1532.91 256.49
  Q 1530.28 248.41 1530.04 241.08
  Q 1529.01 209.98 1528.42 180.10
  C 1528.26 172.36 1527.52 165.18 1525.95 157.64
  C 1525.50 155.48 1523.16 155.64 1521.51 155.98
  Q 1498.85 160.70 1476.20 155.97
  Z"
/>
<path fill="#df0a15" d="
  M 33.92 248.50
  C 53.17 189.54 86.41 137.73 133.42 97.61
  Q 162.84 72.50 196.87 54.57
  C 204.91 50.33 216.69 50.38 225.81 51.72
  Q 258.34 56.48 292.59 65.92
  Q 294.72 66.51 296.74 67.43
  Q 300.36 69.09 302.73 72.43
  Q 304.10 74.35 303.90 76.18
  C 303.63 78.68 302.47 81.94 299.64 82.60
  Q 274.87 88.38 251.70 97.81
  Q 178.20 127.73 132.54 190.77
  C 125.23 200.85 118.76 211.85 109.56 221.18
  Q 104.85 225.96 99.18 230.63
  Q 86.84 240.81 74.99 251.48
  Q 59.18 265.71 46.72 282.12
  Q 45.89 283.21 44.77 283.84
  Q 41.24 285.80 37.44 287.65
  Q 31.61 290.47 27.49 285.60
  Q 26.89 284.89 26.96 283.92
  Q 28.37 265.51 33.92 248.50
  Z"
/>
<path fill="#ffffff" d="
  M 1166.24 228.46
  C 1162.48 242.40 1155.64 255.20 1144.64 264.76
  C 1131.05 276.58 1113.01 285.32 1095.47 281.20
  Q 1086.35 279.05 1076.73 274.26
  Q 1050.60 261.26 1036.31 235.31
  C 1015.12 196.86 1017.27 146.38 1032.39 105.00
  C 1043.01 75.95 1063.22 58.74 1095.82 57.55
  Q 1110.45 57.01 1122.70 59.98
  C 1145.50 65.52 1159.83 91.96 1165.41 112.86
  C 1175.56 150.90 1176.41 190.75 1166.24 228.46
  Z
  M 1113.3808 245.9369
  A 80.12 43.16 90.5 0 0 1157.2384 166.1966
  A 80.12 43.16 90.5 0 0 1114.7792 85.7031
  A 80.12 43.16 90.5 0 0 1070.9216 165.4434
  A 80.12 43.16 90.5 0 0 1113.3808 245.9369
  Z"
/>
<path fill="#ffffff" d="
  M 1763.70 236.66
  C 1757.82 255.47 1743.63 268.32 1726.24 277.01
  C 1695.93 292.17 1658.33 269.02 1641.97 243.83
  C 1618.27 207.32 1616.76 162.30 1627.55 120.26
  C 1633.57 96.83 1646.47 70.25 1671.21 62.45
  Q 1694.32 55.16 1717.05 58.51
  C 1737.14 61.47 1753.13 78.89 1760.01 97.07
  Q 1785.94 165.59 1763.70 236.66
  Z
  M 1713.5098 245.9956
  A 80.23 43.21 90.6 0 0 1757.5576 166.2225
  A 80.23 43.21 90.6 0 0 1715.1902 85.5444
  A 80.23 43.21 90.6 0 0 1671.1424 165.3175
  A 80.23 43.21 90.6 0 0 1713.5098 245.9956
  Z"
/>
<path fill="#df0a15" d="
  M 572.87 107.75
  C 575.84 105.01 578.44 106.24 581.74 107.02
  Q 585.69 107.95 588.74 111.02
  Q 629.40 151.80 653.42 198.88
  C 681.74 254.38 691.57 316.01 686.45 378.29
  Q 686.10 382.48 683.37 385.87
  Q 661.73 412.71 637.46 437.80
  C 632.23 443.20 629.28 446.37 622.00 445.17
  C 614.63 443.96 615.53 438.61 617.22 432.92
  Q 621.13 419.75 624.14 404.55
  Q 642.11 313.59 601.55 233.04
  C 597.39 224.77 592.57 217.12 590.88 208.18
  Q 589.43 200.59 588.15 192.66
  Q 582.86 160.02 571.63 127.34
  C 569.65 121.57 568.72 115.85 569.82 109.91
  Q 570.15 108.11 571.98 108.10
  Q 572.49 108.10 572.87 107.75
  Z"
/>
<path fill="#ffffff" d="
  M 1344.16 138.80
  C 1354.40 143.20 1360.62 152.06 1367.27 160.39
  C 1369.39 163.04 1372.11 166.54 1372.24 169.93
  C 1372.47 175.60 1364.28 175.89 1360.14 175.82
  Q 1298.44 174.78 1235.95 172.14
  C 1224.84 171.67 1215.50 168.24 1211.72 156.84
  C 1209.96 151.52 1212.79 145.71 1218.43 144.48
  Q 1276.97 131.75 1330.57 135.65
  Q 1338.11 136.20 1344.16 138.80
  Z"
/>
<path fill="#ffffff" d="
  M 1934.33 135.80
  C 1950.48 136.98 1963.94 154.06 1972.68 167.33
  C 1974.56 170.18 1972.78 173.58 1969.50 174.14
  C 1955.74 176.46 1945.98 175.95 1928.50 175.37
  Q 1863.90 173.25 1833.50 172.15
  C 1821.72 171.73 1813.28 165.11 1811.98 153.01
  C 1811.56 149.09 1813.95 145.40 1817.81 144.55
  Q 1876.47 131.57 1934.33 135.80
  Z"
/>
<path fill="#df0a15" d="
  M 550.22 425.96
  Q 542.64 423.37 539.02 419.73
  Q 449.22 329.41 358.69 239.28
  C 356.27 236.87 353.88 234.32 350.98 237.21
  Q 256.51 331.43 161.79 425.97
  L 100.76 425.98
  A 0.54 0.53 88.9 0 1 100.23 425.46
  Q 100.14 423.42 99.43 421.48
  C 97.90 417.30 99.87 412.80 101.56 408.96
  Q 102.53 406.75 104.65 404.63
  Q 225.04 284.18 342.42 166.82
  C 347.41 161.83 355.60 160.86 361.46 164.85
  Q 363.86 166.48 366.15 168.74
  Q 432.40 234.42 502.88 303.90
  Q 503.54 304.55 503.53 303.62
  C 503.43 296.95 502.65 290.00 504.33 284.01
  Q 505.57 279.59 510.53 279.56
  Q 531.16 279.45 552.01 279.52
  C 555.77 279.53 557.58 282.10 557.58 285.49
  Q 557.63 321.01 557.51 355.48
  Q 557.50 358.79 559.74 361.04
  Q 581.74 383.13 605.69 406.98
  C 610.69 411.96 612.55 418.25 610.07 424.97
  A 1.56 1.55 -79.6 0 1 608.62 425.98
  L 550.22 425.96
  Z"
/>
<path fill="#ffffff" d="
  M 550.22 425.96
  Q 527.60 426.10 510.37 425.10
  Q 508.72 425.01 507.23 423.53
  Q 431.38 348.13 355.20 272.37
  A 2.47 2.47 0.0 0 0 351.71 272.38
  Q 276.32 347.77 201.34 422.74
  Q 199.81 424.27 197.63 424.44
  Q 179.95 425.82 161.79 425.97
  Q 256.51 331.43 350.98 237.21
  C 353.88 234.32 356.27 236.87 358.69 239.28
  Q 449.22 329.41 539.02 419.73
  Q 542.64 423.37 550.22 425.96
  Z"
/>
<path fill="#ffffff" d="
  M 123.43 593.92
  Q 122.08 593.29 121.24 592.47
  C 65.21 538.24 28.19 466.31 22.95 388.05
  Q 22.25 377.71 22.19 367.53
  Q 22.09 351.19 20.76 334.30
  Q 20.18 326.90 23.46 320.01
  Q 25.37 315.99 30.72 309.84
  Q 51.27 286.21 73.27 262.57
  C 76.43 259.18 80.89 256.60 85.49 256.37
  C 92.95 255.99 90.60 266.40 89.42 270.43
  Q 75.76 317.06 77.35 361.59
  Q 79.28 415.83 103.37 464.98
  C 107.89 474.21 112.93 483.77 114.82 493.40
  Q 116.11 499.96 117.43 507.94
  Q 122.38 537.73 129.34 562.00
  Q 131.61 569.91 133.61 577.03
  Q 134.37 579.77 135.31 582.34
  Q 136.28 584.99 137.21 587.72
  Q 137.85 589.61 137.66 591.26
  C 137.47 592.97 137.75 594.83 136.75 596.33
  C 134.40 599.82 131.10 599.60 128.20 597.05
  Q 126.02 595.13 123.43 593.92
  Z"
/>
<rect fill="#ffffff" x="-16.55" y="-16.12" transform="translate(331.60,358.43) rotate(0.3)" width="33.10" height="32.24" rx="2.38"/>
<rect fill="#ffffff" x="-16.92" y="-16.10" transform="translate(381.07,358.49) rotate(0.2)" width="33.84" height="32.20" rx="1.62"/>
<path fill="#ffffff" d="
  M 1294.09 633.09
  C 1292.23 647.51 1288.18 660.93 1281.26 672.96
  C 1274.20 685.24 1258.64 688.74 1245.64 687.19
  C 1240.23 686.55 1237.57 682.36 1236.76 677.10
  Q 1230.77 638.09 1231.88 603.48
  Q 1232.30 590.36 1233.64 555.18
  Q 1234.42 534.53 1234.30 505.25
  Q 1234.25 494.52 1233.87 485.24
  C 1232.67 456.25 1231.49 428.28 1231.29 399.80
  C 1231.26 395.40 1229.98 391.52 1225.00 391.77
  Q 1193.30 393.33 1161.62 394.27
  Q 1160.85 394.29 1160.77 393.53
  L 1160.62 392.02
  Q 1160.54 391.16 1161.38 390.98
  Q 1207.23 381.09 1245.01 373.80
  Q 1261.00 370.72 1279.56 370.30
  Q 1306.80 369.70 1340.85 374.01
  C 1344.57 374.48 1345.88 380.15 1342.09 380.81
  Q 1323.23 384.12 1284.45 389.52
  Q 1280.87 390.02 1281.05 393.50
  Q 1285.87 488.48 1294.85 590.62
  Q 1296.77 612.42 1294.09 633.09
  Z"
/>
<path fill="#ffffff" d="
  M 1557.75 371.62
  C 1563.06 373.54 1568.12 375.55 1573.21 377.72
  Q 1591.55 385.54 1595.23 405.21
  Q 1602.99 446.71 1605.40 485.22
  C 1606.96 510.05 1605.07 534.94 1604.03 559.50
  Q 1602.05 605.83 1601.71 652.67
  Q 1601.67 657.43 1603.09 659.55
  Q 1605.34 662.91 1609.88 663.11
  Q 1645.71 664.68 1684.94 664.37
  Q 1688.74 664.34 1687.28 667.85
  Q 1687.12 668.23 1686.93 668.59
  Q 1685.07 671.98 1681.23 672.32
  Q 1651.44 674.93 1620.28 674.79
  Q 1617.39 674.78 1611.24 675.95
  C 1604.10 677.31 1597.52 679.58 1590.65 681.31
  Q 1573.83 685.54 1557.33 684.87
  C 1553.86 684.73 1552.34 681.75 1551.84 678.60
  Q 1545.94 641.19 1544.65 618.84
  Q 1539.84 535.34 1542.87 433.25
  Q 1543.47 413.04 1542.60 383.02
  C 1542.31 373.19 1548.04 368.10 1557.75 371.62
  Z"
/>
<path fill="#ffffff" d="
  M 1429.41 476.72
  C 1425.88 476.97 1423.40 479.99 1423.80 483.50
  Q 1426.31 505.55 1429.82 519.84
  C 1434.49 538.81 1438.96 556.88 1439.63 576.67
  Q 1440.43 600.08 1440.71 623.23
  C 1440.73 624.97 1441.97 626.39 1443.76 626.50
  Q 1468.80 627.94 1491.79 622.25
  C 1498.45 620.60 1503.92 620.80 1509.96 624.01
  Q 1511.00 624.57 1511.55 625.58
  A 2.04 2.03 -26.8 0 1 1510.61 628.41
  Q 1497.96 634.25 1486.34 638.36
  C 1476.76 641.76 1467.04 641.31 1457.33 641.90
  C 1439.96 642.96 1422.57 646.14 1405.75 651.11
  C 1398.38 653.28 1391.15 653.97 1384.14 651.31
  Q 1372.15 646.76 1369.91 635.41
  Q 1369.16 631.64 1370.12 622.26
  Q 1372.63 597.80 1371.76 583.25
  Q 1365.92 485.74 1368.05 392.25
  C 1368.23 384.24 1374.92 380.45 1382.07 380.31
  Q 1415.38 379.65 1448.45 379.00
  Q 1457.62 378.82 1465.29 379.61
  C 1469.85 380.08 1475.93 382.18 1479.77 385.29
  A 1.19 1.19 0.0 0 1 1479.42 387.33
  Q 1476.25 388.47 1473.31 388.61
  Q 1440.39 390.22 1404.77 392.80
  C 1402.64 392.96 1401.84 394.71 1402.42 396.60
  Q 1410.34 422.38 1413.53 449.01
  C 1414.21 454.72 1417.93 459.63 1423.67 460.51
  Q 1426.50 460.94 1430.36 460.49
  Q 1467.84 456.12 1503.87 465.09
  C 1506.24 465.68 1506.50 468.34 1504.92 469.99
  Q 1501.96 473.06 1498.27 473.17
  Q 1465.61 474.09 1429.41 476.72
  Z"
/>
<path fill="#ffffff" d="
  M 924.73 516.86
  A 3.79 3.79 0.0 0 0 922.57 516.53
  Q 899.57 519.88 876.00 516.48
  C 871.99 515.91 868.28 516.83 868.30 521.58
  Q 868.49 578.46 861.29 635.52
  Q 858.71 655.93 851.84 672.43
  C 849.51 678.02 844.15 679.76 838.42 679.53
  Q 826.85 679.07 814.23 682.03
  C 811.09 682.76 808.18 680.55 808.41 677.24
  Q 811.04 640.39 811.18 606.08
  Q 811.60 503.34 809.61 401.84
  C 809.36 388.99 817.37 384.45 829.36 383.70
  Q 839.45 383.07 846.55 384.16
  Q 854.01 385.31 858.11 391.79
  Q 860.05 394.86 861.47 403.26
  Q 870.18 454.50 869.75 500.92
  Q 869.71 504.93 873.68 505.13
  C 888.74 505.86 928.03 503.50 929.39 481.74
  Q 931.09 454.55 932.59 418.27
  C 932.99 408.37 935.98 400.96 945.49 397.22
  C 953.95 393.89 966.67 392.57 972.85 400.51
  Q 975.19 403.52 977.07 411.51
  C 984.54 443.32 986.42 474.74 984.78 507.48
  C 983.27 537.87 979.22 568.02 974.04 598.06
  C 973.08 603.62 969.77 606.55 964.66 608.91
  Q 950.75 615.33 941.14 619.58
  Q 934.22 622.64 932.26 615.79
  C 930.42 609.39 929.73 601.84 929.55 594.78
  Q 928.64 559.06 927.19 521.00
  Q 927.08 518.00 924.73 516.86
  Z"
/>
<rect fill="#ffffff" x="-16.49" y="-16.69" transform="translate(331.60,407.36) rotate(-0.3)" width="32.98" height="33.38" rx="2.79"/>
<rect fill="#ffffff" x="-16.80" y="-16.71" transform="translate(381.05,407.30) rotate(-0.3)" width="33.60" height="33.42" rx="1.61"/>
<path fill="#ffffff" d="
  M 414.33 620.58
  Q 415.35 619.69 416.66 619.36
  Q 520.73 592.79 582.32 504.03
  C 588.97 494.45 594.25 485.05 603.93 477.00
  Q 611.06 471.05 618.58 464.63
  Q 643.97 442.95 665.52 418.00
  C 667.02 416.27 668.64 415.96 670.46 414.85
  C 673.45 413.02 679.28 415.38 679.06 419.34
  Q 677.98 438.82 671.35 458.17
  C 654.13 508.45 626.28 553.79 588.04 590.22
  Q 551.81 624.74 506.74 648.33
  C 501.13 651.27 495.25 651.35 488.42 650.32
  Q 450.75 644.66 413.54 635.36
  C 412.33 635.06 411.62 634.64 410.68 633.87
  A 1.36 1.31 -23.1 0 0 409.89 633.57
  Q 406.28 633.42 405.44 629.68
  Q 404.22 624.27 408.74 622.47
  Q 411.16 621.50 413.69 620.91
  A 1.58 1.56 17.3 0 0 414.33 620.58
  Z"
/>
<path fill="#ffffff" d="
  M 1163.93 594.92
  C 1160.01 606.60 1155.88 615.85 1146.32 623.59
  C 1131.48 635.60 1115.19 645.71 1095.69 641.71
  Q 1086.47 639.82 1076.80 634.74
  C 1016.28 602.92 1010.97 525.50 1031.18 468.03
  C 1038.79 446.38 1051.86 429.14 1073.80 421.60
  Q 1094.32 414.56 1115.50 418.21
  C 1148.23 423.86 1162.37 456.68 1168.44 486.24
  C 1175.91 522.56 1175.73 559.83 1163.93 594.92
  Z
  M 1113.1922 606.1456
  A 80.01 43.21 90.6 0 0 1157.2376 526.5925
  A 80.01 43.21 90.6 0 0 1114.8678 446.1344
  A 80.01 43.21 90.6 0 0 1070.8224 525.6875
  A 80.01 43.21 90.6 0 0 1113.1922 606.1456
  Z"
/>
<path fill="#df0a15" d="
  M 147.88 532.62
  Q 148.74 532.62 149.32 533.24
  C 184.89 571.45 228.62 599.99 278.67 614.61
  Q 311.02 624.06 343.26 625.89
  Q 353.38 626.47 361.24 627.86
  Q 368.02 629.06 377.92 633.03
  C 401.50 642.47 425.90 649.62 450.98 654.59
  Q 454.76 655.34 456.13 659.78
  C 458.32 666.90 453.52 671.78 447.13 673.37
  C 391.84 687.15 332.96 689.12 277.67 676.82
  Q 218.80 663.72 167.29 630.18
  Q 163.45 627.68 161.67 623.43
  Q 148.74 592.63 138.55 554.83
  Q 135.43 543.28 137.93 533.23
  Q 138.35 531.53 140.36 530.06
  C 142.73 528.33 146.08 529.55 147.05 532.06
  A 0.88 0.87 79.0 0 0 147.88 532.62
  Z"
/>
</svg>
